<?xml version='1.0' encoding='utf-8'?>
<svg xmlns="http://www.w3.org/2000/svg" enable-background="new 0 0 2673.845 1132.629" version="1.1" viewBox="0 0 2673.845 1132.629">
<path d="m2616.4 384.62c-10.789-21.247-821.18-41.467-855.22-49.774-4.615-1.126-8.547-2.267-13.397-1.516-2.819 0.436-8.641-15.396-9.048-15.815-10.655-10.984-25.748 4.484-26.841-4.611-2.067-17.183-80.144-44.413-118.46-22.623-2.806 1.596-3.836 5.682-7.9 5.453-0.215-0.012-0.932 1.669-0.697 2.29 0.589 1.558 1.896 2.746 3.64 2.751 7.355 0.023 14.016 4.446 21.626 3.327 0.949-0.14 3.296 2.457 3.257 3.732-0.114 3.72-0.343 0.194-33.525-0.135-7.837-0.077-15.627-4.038-19.925-10.664-0.538-0.83-1.493-1.822-2.321-1.28-0.775 0.508-0.376 1.68-0.319 2.604 0.125 2.02-2.383 3.67-4.188 2.755s-1.956-3.914-0.253-5.006c-7.003 1.156-14.35 1.951-21.165 3.61 5.311 1.491 4.335 13.767-17.846 4.081-54.743-3.234-908.56-165.03-968.17-162.01 21.216 12.584 163.9 27.126 461.52 84.61 450.25 86.968 414.45 86.296 438.81 80.838 23.396-3.732 46.179 8.431 69.681 11.433 18.837 2.408 14.01 6.715 17.64 13.35 2.181 3.985 19.207 5.206 20.774 4.532 3.354-1.443 15.544-0.93 22.357 2.677 7.682 4.067 8.22 47.92-2.23 45.975-64.185-11.965-299.33-21.876-324.23-5.627 0.448-1.394-0.072-3.044-1.238-3.931-7.401-5.628-2.672 9.978-0.19 12.595 3.71 3.905 8.924 6.702 11.735 11.409 0.888 1.486 0.228 3.442 2.183 4.244 0.39 0.16 10.643-2.413 5.886 3.217-1.926 2.28-5.71 0.731-7.97 0.708-5.161-0.053-6.998 4.283-10.476 7.028-12.277 9.687-27.385-0.263-39.51 0.437-37.996 2.191-54.053 24.739-51.084 35.539 2.696 9.804 17.213 10.98 24.371 15.842 4.799 3.26 10.786 4.376 16.207 6.465 7.393 2.893 0.805 9.316 3.671 13.746-0.998-1.55-9.931 4.575-10.992 5.11-21.479 10.836-727.31-60.08-759.38-60.08-21.023-1.733-15.399-10.662-19.977-18.016-19.85-31.889-37.525-78.856-62.166-121.98-95.788-191.39-105.3-227.14-123.83-236.58-11.977-6.098-107.01-11.295-120.3-11.898-6.072-0.275-23.294-4.496-27.121 2.118-1.077 1.862-2.285 7.176-0.551 8.983 2.782 2.898 8.269-4.211 10.991 9.093 1.471 7.186 34.82 170.44 34.82 170.44 4.161 14.934 10.571 28.45 12.44 44.136 4.065 34.124-0.377 26.624-29.877 66.648-36.606 49.674-47.337 68.799-50.014 88.103-2.133 15.308 0.811 32.674 15.719 39.735 3.775 1.788 41.032 37.832 42.19 39.161 2.418 2.775-18.843 72.086-23.676 89.955-2.098 7.756-6.919 17.558-1.541 25.002 6.107 8.453 22.293 10.77 31.578 14.121 95.12 34.325 78.825 21.534 96.654 13.453 29.071-13.178 92.522-75.574 172.18-125.78 26.225-16.531 5.935-11.528 153.18 13.015 0.015 3e-3 525.35 91.818 525.35 91.818 23.287 1.045 36.181 13.042 111.34 62.864 169.33 112.24 219.86 129.36 213.03 148.22-4.435 12.236-20.422 1.687-55.749 2.383-12.912 0.255-22.347 24.156-29.124 40.987-13.259 32.933-8.596 59.254-17.372 61.123-8.45 1.799-20.475-6.023-27.858-1.76-21.893 12.639-8.291 44.363 14.829 44.556 7.409 0.062 14.089-1.206 21.011 2.717 1.908 1.081 5.258 2.221 6.068 4.506 0.899 2.537-2.063 4.764-1.15 6.958 1.643 3.953 16.268 6 20.024 7.25 65.321 21.747 105.99 23.628 130.82 26.506 419.81 48.663 471.58 73.866 517.81 19.22 0.846-1 35.708-38.58 57.489-70.612 7.427-10.923 15.237-22.446 28.649-27.862 5.766-2.329 7.719-8.522 12.199-12.294 5.054-4.255 13.581-2.64 19.77-2.171 18.965 1.436 37.918-1.396 56.605-4.334 17.262-2.714 34.747-3.877 51.925-7.009 60.178-10.972 84.364-25.857 97.64-34.683 9.687-6.44 16.241-15.662 22.945-25.041 51.249-71.702-155.55-305.78-347.7-335.15-5.134-0.785-12.721-0.205-17.432-2.24-3.811-1.646-4.284-5.577-6.532-8.881-9.611-14.131-23.784-11.669-31.006-35.949-1.409-4.739-5.507-1.47-6.503-4.497-3.037-9.241-10.066-16.176-14.153-24.768-2.473-5.198-6.128-9.23-10.468-12.8-1.516 5.799 2.803 10.317 4.478 14.968 11.79 32.734 22.878 46.595 23.006 59.462 0.051 5.056-5.825 6.474-11.684 2.296-7.424-5.294-14.766-10.612-21.252-17.29-4.688-4.827-11.888-7.121-17.616-11.055-19.237-13.32-79.878-62.171-157.73-88.667-27.925-9.507-28.057-8.579-26.409-17.683 1.372-7.582 3.082-15.103 5.142-22.528 2.077-7.484 1.222-14.037 10.715-12.246 3.123 0.589 5.762-1.016 8.472-1.546 8.139-1.592 14.513 2.649 21.397 5.023 6.41 2.21 13.42-0.144 16.308-7.127 1.551-3.749 2.884-4.363 7.187-4.374 21.398-0.054 27.129-4.683 30.5 1.147 0.23 0.397 1.001 0.854 1.364 0.748 19.797-5.809 38.895-0.311 58.192 3.253 58.422 10.794 534.16 13.21 776.75 33.13 2.339 0.192 2.027-2.011 1.243-3.555zm-2301.1 55.866c-8.474-1.259-17.466 1.252-22.156-7.184-6.212-11.174-12.187-21.217-24.552-26.538-17.243-7.42-39.447-0.25-49.095 15.853s-5.495 39.064 9.182 50.767c14.677 11.704 37.985 10.642 51.537-2.347 8.183-7.842 12.002-18.161 34.047-15.881 7.99 0.827 29.065-0.022 27.887 11.795-5.381 53.968-94.448 101.61-155.18 39.607-14.839-15.15-25.006-34.661-26.926-55.936-6.446-71.478 72.285-122.2 130.29-95.091 30.367 14.19 39.922 22.591 58.874 69.098 0.702 1.722 1.413 3.486 1.502 5.343 0.828 17.356-25.262 12.022-35.411 10.514zm1217.3 450.22c7.41 2.228 12.797 6.99 17.829 12.658 1.791 2.018 8.101 6.466 7.938 9.402-0.383 6.892-44.197-3.039-67.075-6.621-11.489-1.798-28.477 0.233-32.931-22.329-3.875-19.636 3.573-14.354 74.239 6.89zm463.54 103.64c7.542 1.469 7.026 0.804-22.99 27.731-5.372 4.82-10.982 12.961-18.103 15.31-3.726 1.229-33.404 0.255-36.688-5.095-1.125-1.831 0.543-4.005 1.983-5.822 33.896-42.789 27.738-41.476 75.798-32.124zm-68.413-7.271c3.357 4.703-35.247 29.524-41.929 34.103-5.162 3.537-10.624 9.155-17.182 4.601-11.782-8.181-71.597-12.319-112.55-19.434-59.382-10.317-283.55-33.744-284.55-33.868-13.614-1.682-10.529-2.8-8.101-37.765 0.234-3.377 1.416-5.499 5.441-4.837 22.783 3.749 454.96 51.717 458.87 57.2zm-139.05-47.669c4.799-11.581 84.371-4.881 94.517 16.287 2.257 4.71-3.505 2.817-53.502-4.119-36.236-5.028-44.532-3.685-41.015-12.168zm-26.388-2.462c-1.24 8.657-7.385 4.909-13.434 4.063-6.575-0.919-13.256-0.944-19.752-2.43-42.34-9.681-98.005-6.546-86.839-19.212 2.352-2.668 13.999-4.482 17.416-3.978 69.273 10.217 104.58 7.812 102.61 21.557z"/>
</svg>